  0
SECTION
  2
HEADER
  9
$ACADVER
  1
AC1009
  9
$INSUNITS
 70
4
  9
$EXTMIN
 10
0.0
 20
0.0
 30
0.0
  9
$EXTMAX
 10
1536.0
 20
1024.0
 30
0.0
  0
ENDSEC
  0
SECTION
  2
TABLES
  0
TABLE
  2
LTYPE
 70
1
  0
LTYPE
  2
CONTINUOUS
 70
0
  3
Solid line
 72
65
 73
0
 40
0.0
  0
ENDTAB
  0
TABLE
  2
LAYER
 70
1
  0
LAYER
  2
0
 70
0
 62
7
  6
CONTINUOUS
  0
ENDTAB
  0
ENDSEC
  0
SECTION
  2
ENTITIES
  0
LINE
  8
0
 10
957.0000
 20
242.0000
 30
0.0
 11
956.0000
 21
242.0000
 31
0.0
  0
LINE
  8
0
 10
956.0000
 20
242.0000
 30
0.0
 11
955.0000
 21
243.0000
 31
0.0
  0
LINE
  8
0
 10
955.0000
 20
243.0000
 30
0.0
 11
953.0000
 21
243.0000
 31
0.0
  0
LINE
  8
0
 10
953.0000
 20
243.0000
 30
0.0
 11
952.0000
 21
242.0000
 31
0.0
  0
LINE
  8
0
 10
952.0000
 20
242.0000
 30
0.0
 11
951.0000
 21
242.0000
 31
0.0
  0
LINE
  8
0
 10
951.0000
 20
242.0000
 30
0.0
 11
950.0000
 21
241.0000
 31
0.0
  0
LINE
  8
0
 10
950.0000
 20
241.0000
 30
0.0
 11
949.0000
 21
241.0000
 31
0.0
  0
LINE
  8
0
 10
949.0000
 20
241.0000
 30
0.0
 11
948.0000
 21
240.0000
 31
0.0
  0
LINE
  8
0
 10
948.0000
 20
240.0000
 30
0.0
 11
947.0000
 21
240.0000
 31
0.0
  0
LINE
  8
0
 10
947.0000
 20
240.0000
 30
0.0
 11
946.0000
 21
239.0000
 31
0.0
  0
LINE
  8
0
 10
946.0000
 20
239.0000
 30
0.0
 11
946.0000
 21
236.0000
 31
0.0
  0
LINE
  8
0
 10
946.0000
 20
236.0000
 30
0.0
 11
948.0000
 21
236.0000
 31
0.0
  0
LINE
  8
0
 10
948.0000
 20
236.0000
 30
0.0
 11
949.0000
 21
237.0000
 31
0.0
  0
LINE
  8
0
 10
949.0000
 20
237.0000
 30
0.0
 11
950.0000
 21
237.0000
 31
0.0
  0
LINE
  8
0
 10
950.0000
 20
237.0000
 30
0.0
 11
951.0000
 21
238.0000
 31
0.0
  0
LINE
  8
0
 10
951.0000
 20
238.0000
 30
0.0
 11
952.0000
 21
238.0000
 31
0.0
  0
LINE
  8
0
 10
952.0000
 20
238.0000
 30
0.0
 11
953.0000
 21
239.0000
 31
0.0
  0
LINE
  8
0
 10
953.0000
 20
239.0000
 30
0.0
 11
954.0000
 21
239.0000
 31
0.0
  0
LINE
  8
0
 10
954.0000
 20
239.0000
 30
0.0
 11
956.0000
 21
241.0000
 31
0.0
  0
LINE
  8
0
 10
956.0000
 20
241.0000
 30
0.0
 11
957.0000
 21
241.0000
 31
0.0
  0
LINE
  8
0
 10
957.0000
 20
241.0000
 30
0.0
 11
957.0000
 21
242.0000
 31
0.0
  0
LINE
  8
0
 10
894.0000
 20
386.0000
 30
0.0
 11
893.0000
 21
387.0000
 31
0.0
  0
LINE
  8
0
 10
893.0000
 20
387.0000
 30
0.0
 11
893.0000
 21
388.0000
 31
0.0
  0
LINE
  8
0
 10
893.0000
 20
388.0000
 30
0.0
 11
887.0000
 21
388.0000
 31
0.0
  0
LINE
  8
0
 10
887.0000
 20
388.0000
 30
0.0
 11
886.0000
 21
389.0000
 31
0.0
  0
LINE
  8
0
 10
886.0000
 20
389.0000
 30
0.0
 11
887.0000
 21
390.0000
 31
0.0
  0
LINE
  8
0
 10
887.0000
 20
390.0000
 30
0.0
 11
888.0000
 21
390.0000
 31
0.0
  0
LINE
  8
0
 10
888.0000
 20
390.0000
 30
0.0
 11
889.0000
 21
393.0000
 31
0.0
  0
LINE
  8
0
 10
889.0000
 20
393.0000
 30
0.0
 11
885.0000
 21
393.0000
 31
0.0
  0
LINE
  8
0
 10
885.0000
 20
393.0000
 30
0.0
 11
885.0000
 21
392.0000
 31
0.0
  0
LINE
  8
0
 10
885.0000
 20
392.0000
 30
0.0
 11
884.0000
 21
391.0000
 31
0.0
  0
LINE
  8
0
 10
884.0000
 20
391.0000
 30
0.0
 11
883.0000
 21
392.0000
 31
0.0
  0
LINE
  8
0
 10
883.0000
 20
392.0000
 30
0.0
 11
876.0000
 21
392.0000
 31
0.0
  0
LINE
  8
0
 10
876.0000
 20
392.0000
 30
0.0
 11
875.0000
 21
391.0000
 31
0.0
  0
LINE
  8
0
 10
875.0000
 20
391.0000
 30
0.0
 11
870.0000
 21
391.0000
 31
0.0
  0
LINE
  8
0
 10
870.0000
 20
391.0000
 30
0.0
 11
869.0000
 21
390.0000
 31
0.0
  0
LINE
  8
0
 10
869.0000
 20
390.0000
 30
0.0
 11
867.0000
 21
390.0000
 31
0.0
  0
LINE
  8
0
 10
867.0000
 20
390.0000
 30
0.0
 11
867.0000
 21
387.0000
 31
0.0
  0
LINE
  8
0
 10
867.0000
 20
387.0000
 30
0.0
 11
869.0000
 21
387.0000
 31
0.0
  0
LINE
  8
0
 10
869.0000
 20
387.0000
 30
0.0
 11
870.0000
 21
386.0000
 31
0.0
  0
LINE
  8
0
 10
870.0000
 20
386.0000
 30
0.0
 11
869.0000
 21
385.0000
 31
0.0
  0
LINE
  8
0
 10
869.0000
 20
385.0000
 30
0.0
 11
867.0000
 21
385.0000
 31
0.0
  0
LINE
  8
0
 10
867.0000
 20
385.0000
 30
0.0
 11
867.0000
 21
382.0000
 31
0.0
  0
LINE
  8
0
 10
867.0000
 20
382.0000
 30
0.0
 11
871.0000
 21
382.0000
 31
0.0
  0
LINE
  8
0
 10
871.0000
 20
382.0000
 30
0.0
 11
872.0000
 21
383.0000
 31
0.0
  0
LINE
  8
0
 10
872.0000
 20
383.0000
 30
0.0
 11
875.0000
 21
383.0000
 31
0.0
  0
LINE
  8
0
 10
875.0000
 20
383.0000
 30
0.0
 11
876.0000
 21
384.0000
 31
0.0
  0
LINE
  8
0
 10
876.0000
 20
384.0000
 30
0.0
 11
879.0000
 21
384.0000
 31
0.0
  0
LINE
  8
0
 10
879.0000
 20
384.0000
 30
0.0
 11
880.0000
 21
385.0000
 31
0.0
  0
LINE
  8
0
 10
880.0000
 20
385.0000
 30
0.0
 11
884.0000
 21
385.0000
 31
0.0
  0
LINE
  8
0
 10
884.0000
 20
385.0000
 30
0.0
 11
885.0000
 21
386.0000
 31
0.0
  0
LINE
  8
0
 10
885.0000
 20
386.0000
 30
0.0
 11
887.0000
 21
386.0000
 31
0.0
  0
LINE
  8
0
 10
887.0000
 20
386.0000
 30
0.0
 11
888.0000
 21
387.0000
 31
0.0
  0
LINE
  8
0
 10
888.0000
 20
387.0000
 30
0.0
 11
889.0000
 21
387.0000
 31
0.0
  0
LINE
  8
0
 10
889.0000
 20
387.0000
 30
0.0
 11
890.0000
 21
386.0000
 31
0.0
  0
LINE
  8
0
 10
890.0000
 20
386.0000
 30
0.0
 11
890.0000
 21
385.0000
 31
0.0
  0
LINE
  8
0
 10
890.0000
 20
385.0000
 30
0.0
 11
894.0000
 21
385.0000
 31
0.0
  0
LINE
  8
0
 10
894.0000
 20
385.0000
 30
0.0
 11
894.0000
 21
386.0000
 31
0.0
  0
LINE
  8
0
 10
888.0000
 20
402.0000
 30
0.0
 11
878.0000
 21
402.0000
 31
0.0
  0
LINE
  8
0
 10
878.0000
 20
402.0000
 30
0.0
 11
877.0000
 21
401.0000
 31
0.0
  0
LINE
  8
0
 10
877.0000
 20
401.0000
 30
0.0
 11
871.0000
 21
401.0000
 31
0.0
  0
LINE
  8
0
 10
871.0000
 20
401.0000
 30
0.0
 11
870.0000
 21
400.0000
 31
0.0
  0
LINE
  8
0
 10
870.0000
 20
400.0000
 30
0.0
 11
867.0000
 21
400.0000
 31
0.0
  0
LINE
  8
0
 10
867.0000
 20
400.0000
 30
0.0
 11
866.0000
 21
399.0000
 31
0.0
  0
LINE
  8
0
 10
866.0000
 20
399.0000
 30
0.0
 11
865.0000
 21
399.0000
 31
0.0
  0
LINE
  8
0
 10
865.0000
 20
399.0000
 30
0.0
 11
865.0000
 21
396.0000
 31
0.0
  0
LINE
  8
0
 10
865.0000
 20
396.0000
 30
0.0
 11
868.0000
 21
396.0000
 31
0.0
  0
LINE
  8
0
 10
868.0000
 20
396.0000
 30
0.0
 11
869.0000
 21
397.0000
 31
0.0
  0
LINE
  8
0
 10
869.0000
 20
397.0000
 30
0.0
 11
871.0000
 21
397.0000
 31
0.0
  0
LINE
  8
0
 10
871.0000
 20
397.0000
 30
0.0
 11
872.0000
 21
398.0000
 31
0.0
  0
LINE
  8
0
 10
872.0000
 20
398.0000
 30
0.0
 11
877.0000
 21
398.0000
 31
0.0
  0
LINE
  8
0
 10
877.0000
 20
398.0000
 30
0.0
 11
878.0000
 21
399.0000
 31
0.0
  0
LINE
  8
0
 10
878.0000
 20
399.0000
 30
0.0
 11
888.0000
 21
399.0000
 31
0.0
  0
LINE
  8
0
 10
888.0000
 20
399.0000
 30
0.0
 11
888.0000
 21
402.0000
 31
0.0
  0
LINE
  8
0
 10
753.0000
 20
482.0000
 30
0.0
 11
735.0000
 21
428.0000
 31
0.0
  0
LINE
  8
0
 10
735.0000
 20
428.0000
 30
0.0
 11
711.0000
 21
425.0000
 31
0.0
  0
LINE
  8
0
 10
711.0000
 20
425.0000
 30
0.0
 11
675.0000
 21
361.0000
 31
0.0
  0
LINE
  8
0
 10
675.0000
 20
361.0000
 30
0.0
 11
631.0000
 21
377.0000
 31
0.0
  0
LINE
  8
0
 10
631.0000
 20
377.0000
 30
0.0
 11
604.0000
 21
346.0000
 31
0.0
  0
LINE
  8
0
 10
604.0000
 20
346.0000
 30
0.0
 11
575.0000
 21
236.0000
 31
0.0
  0
LINE
  8
0
 10
575.0000
 20
236.0000
 30
0.0
 11
556.0000
 21
204.0000
 31
0.0
  0
LINE
  8
0
 10
556.0000
 20
204.0000
 30
0.0
 11
561.0000
 21
177.0000
 31
0.0
  0
LINE
  8
0
 10
561.0000
 20
177.0000
 30
0.0
 11
571.0000
 21
182.0000
 31
0.0
  0
LINE
  8
0
 10
571.0000
 20
182.0000
 30
0.0
 11
578.0000
 21
176.0000
 31
0.0
  0
LINE
  8
0
 10
578.0000
 20
176.0000
 30
0.0
 11
585.0000
 21
182.0000
 31
0.0
  0
LINE
  8
0
 10
585.0000
 20
182.0000
 30
0.0
 11
596.0000
 21
178.0000
 31
0.0
  0
LINE
  8
0
 10
596.0000
 20
178.0000
 30
0.0
 11
615.0000
 21
251.0000
 31
0.0
  0
LINE
  8
0
 10
615.0000
 20
251.0000
 30
0.0
 11
651.0000
 21
301.0000
 31
0.0
  0
LINE
  8
0
 10
651.0000
 20
301.0000
 30
0.0
 11
662.0000
 21
342.0000
 31
0.0
  0
LINE
  8
0
 10
662.0000
 20
342.0000
 30
0.0
 11
685.0000
 21
370.0000
 31
0.0
  0
LINE
  8
0
 10
685.0000
 20
370.0000
 30
0.0
 11
711.0000
 21
422.0000
 31
0.0
  0
LINE
  8
0
 10
711.0000
 20
422.0000
 30
0.0
 11
736.0000
 21
427.0000
 31
0.0
  0
LINE
  8
0
 10
736.0000
 20
427.0000
 30
0.0
 11
753.0000
 21
482.0000
 31
0.0
  0
ENDSEC
  0
EOF